# xmcd
#
# Track frame offsets:
#	150
#	17197
#	33057
#	49901
#	64286
#	81823
#	105661
#	121096
#	140066
#	159556
#	172853
#	185719
#	196750
#	209501
#	229908
#	242008
#	254665
#	266021
#	277730
#	290185
#	305277
#
# Disc length: 4421 seconds
#
# Revision: 0
# Processed by: cddbd v1.4PL0 Copyright (c) Steve Scherf et al.
# Submitted via: EasyCDDAExtractor 5.0.5.1
#
DISCID=33114315
DTITLE=Mike Ness - Cheating At Solitaire/Under The Influences
DYEAR=1999
DGENRE=Country
TTITLE0=Misery Loves Company
TTITLE1=Crime Don't Pay
TTITLE2=Rest Of Our Lives
TTITLE3=You Win Again
TTITLE4=Cheating At Solitaire
TTITLE5=Dope Fiend Blues
TTITLE6=Ballad Of A Lonely Man
TTITLE7=I'm In Love W/ My Car
TTITLE8=If You Leave Before Me
TTITLE9=Send Her Back
TTITLE10=All I Can Do Is Cry
TTITLE11=Gamblin' Man
TTITLE12=I Fought The Law
TTITLE13=Big Iron
TTITLE14=Six More Miles
TTITLE15=A Thief In The Night
TTITLE16=Once A Day
TTITLE17=Funnel Of Love
TTITLE18=House Of Gold
TTITLE19=Wildwood Flower
TTITLE20=Ball And Chain (Honky Tonk)
EXTD=
EXTT0=
EXTT1=
EXTT2=
EXTT3=
EXTT4=
EXTT5=
EXTT6=
EXTT7=
EXTT8=
EXTT9=
EXTT10=
EXTT11=
EXTT12=
EXTT13=
EXTT14=
EXTT15=
EXTT16=
EXTT17=
EXTT18=
EXTT19=
EXTT20=
PLAYORDER=
